{"title":"OK Kanmani (2015) Tamil -Dvdrip-700mb-Razor-ZippyMoviez","uid":11953397,"size":734731726,"categoryP":"video","categoryS":"movies_dvdr","magnet":"?xt=urn:btih:d4f660f901994ef928bb1f4347e989bddad82f91&amp;dn=OK+Kanmani+%282015%29+Tamil+-Dvdrip-700mb-Razor-ZippyMoviez&amp;tr=udp%3A%2F%2Ftracker.openbittorrent.com%3A80&amp;tr=udp%3A%2F%2Fopen.demonii.com%3A1337&amp;tr=udp%3A%2F%2Ftracker.coppersurfer.tk%3A6969&amp;tr=udp%3A%2F%2Fexodus.desync.com%3A6969","seeders":10,"leechers":0,"uploader":"desi11","files":1,"time":1432273891,"description":"OK Kanmani (2015) Tamil -Dvdrip-700mb-Razor-ZippyMoviez\nFile size : 700 MiB\nDuration : 2h 11mn\nOverall bit rate : 743 Kbps\nEncoded date : UTC 2015-05-21 15:22:31\nWriting application : mkvmerge v6.3.0 ('You can't stop me!') built on Jun 28 2013 20:09:41\nWriting library : libebml v1.3.0 + libmatroska v1.4.0\n\nVideo\nID : 1\nFormat : AVC\nFormat/Info : Advanced Video Codec\nFormat profile : &lt;a class=&quot;__cf_email__&quot; href=&quot;/cdn-cgi/l/email-protection&quot; data-cfemail=&quot;337b5a545b737f011d02&quot;&gt;[email&amp;#160;protected]&lt;/a&gt;&lt;script data-cfhash='f9e31' type=&quot;text/javascript&quot;&gt;\n/* &lt;![CDATA[ */!function(){try{var t=&quot;currentScript&quot;in document?document.currentScript:function(){for(var t=document.getElementsByTagName(&quot;script&quot;),e=t.length;e--;)if(t[e].getAttribute(&quot;data-cfhash&quot;))return t[e]}();if(t&amp;&amp;t.previousSibling){var e,r,n,i,c=t.previousSibling,a=c.getAttribute(&quot;data-cfemail&quot;);if(a){for(e=&quot;&quot;,r=parseInt(a.substr(0,2),16),n=2;a.length-n;n+=2)i=parseInt(a.substr(n,2),16)^r,e+=String.fromCharCode(i);e=document.createTextNode(e),c.parentNode.replaceChild(e,c)}t.parentNode.removeChild(t);}}catch(u){}}()/* ]]&gt; */&lt;/script&gt;\nFormat settings, CABAC : Yes\nFormat settings, ReFrames : 4 frames\nCodec ID : V_MPEG4/ISO/AVC\nDuration : 2h 11mn\nBit rate : 645 Kbps\nWidth : 688 pixels\nHeight : 288 pixels\nDisplay aspect ratio : 2.40:1\nFrame rate mode : Constant\nFrame rate : 25.000 fps\nColor space : YUV\nChroma subsampling : 4:2:0\nBit depth : 8 bits\nScan type : Progressive\nBits/(Pixel*Frame) : 0.130\nStream size : 596 MiB (85%)\nWriting library : x264 core 146 r2538 121396c\nEncoding settings : cabac=1 / ref=3 / deblock=1:0:0 / analyse=0x3:0x113 / me=hex / subme=7 / psy=1 / psy_rd=1.00:0.00 / mixed_ref=1 / me_range=16 / chroma_me=1 / trellis=1 / 8x8dct=1 / cqm=0 / deadzone=21,11 / fast_pskip=1 / chroma_qp_offset=-2 / threads=12 / lookahead_threads=2 / sliced_threads=0 / nr=0 / decimate=1 / interlaced=0 / bluray_compat=0 / constrained_intra=0 / bframes=3 / b_pyramid=2 / b_adapt=1 / b_bias=0 / direct=1 / weightb=1 / open_gop=0 / weightp=2 / keyint=250 / keyint_min=25 / scenecut=40 / intra_refresh=0 / rc_lookahead=40 / rc=2pass / mbtree=1 / bitrate=645 / ratetol=1.0 / qcomp=0.60 / qpmin=0 / qpmax=69 / qpstep=4 / cplxblur=20.0 / qblur=0.5 / ip_ratio=1.40 / aq=1:1.00\nDefault : Yes\nForced : No\n\nAudio\nID : 2\nFormat : AC-3\nFormat/Info : Audio Coding 3\nMode extension : CM (complete main)\nFormat settings, Endianness : Big\nCodec ID : A_AC3\nDuration : 2h 11mn\nBit rate mode : Constant\nBit rate : 96.0 Kbps\nChannel(s) : 2 channels\nChannel positions : Front: L R\nSampling rate : 44.1 KHz\nBit depth : 16 bits\nCompression mode : Lossy\nStream size : 90.6 MiB (13%)\nDefault : Yes\nForced : No\n\n\nScreens &lt;a href=&quot;\nhttp://microimg.biz/imgs/img-555ea5fc2793a.html&quot; rel=&quot;nofollow&quot; target=&quot;_NEW&quot;&gt;\nhttp://microimg.biz/imgs/img-555ea5fc2793a.html&lt;/a&gt; &lt;a href=&quot;\nhttp://microimg.biz/imgs/img-555ea5fc2ac03.html&quot; rel=&quot;nofollow&quot; target=&quot;_NEW&quot;&gt;\nhttp://microimg.biz/imgs/img-555ea5fc2ac03.html&lt;/a&gt; &lt;a href=&quot;\nhttp://microimg.biz/imgs/img-555ea5fc2dae6.html&quot; rel=&quot;nofollow&quot; target=&quot;_NEW&quot;&gt;\nhttp://microimg.biz/imgs/img-555ea5fc2dae6.html&lt;/a&gt; &lt;a href=&quot;\nhttp://microimg.biz/imgs/img-555ea5fc30daa.html&quot; rel=&quot;nofollow&quot; target=&quot;_NEW&quot;&gt;\nhttp://microimg.biz/imgs/img-555ea5fc30daa.html&lt;/a&gt; &lt;a href=&quot;\nhttp://microimg.biz/imgs/img-555ea5fc33c8b.html&quot; rel=&quot;nofollow&quot; target=&quot;_NEW&quot;&gt;\nhttp://microimg.biz/imgs/img-555ea5fc33c8b.html&lt;/a&gt; &lt;a href=&quot;\nhttp://microimg.biz/imgs/img-555ea5fc36b6c.html&quot; rel=&quot;nofollow&quot; target=&quot;_NEW&quot;&gt;\nhttp://microimg.biz/imgs/img-555ea5fc36b6c.html&lt;/a&gt; &lt;a href=&quot;\nhttp://www.zippymoviez.com/forum/topic/56862-ok-kanmani-2015-tamil-dvdrip-700mb-razor/&quot; rel=&quot;nofollow&quot; target=&quot;_NEW&quot;&gt;\nhttp://www.zippymoviez.com/forum/topic/56862-ok-kanmani-2015-tamil-dvdrip-700mb-razor/&lt;/a&gt;","torrent":{"xt":"urn:btih:d4f660f901994ef928bb1f4347e989bddad82f91","amp;dn":"OK+Kanmani+%282015%29+Tamil+-Dvdrip-700mb-Razor-ZippyMoviez","amp;tr":["udp%3A%2F%2Ftracker.openbittorrent.com%3A80","udp%3A%2F%2Fopen.demonii.com%3A1337","udp%3A%2F%2Ftracker.coppersurfer.tk%3A6969","udp%3A%2F%2Fexodus.desync.com%3A6969"],"infoHash":"d4f660f901994ef928bb1f4347e989bddad82f91","infoHashBuffer":{"type":"Buffer","data":[212,246,96,249,1,153,78,249,40,187,31,67,71,233,137,189,218,216,47,145]},"announce":[],"urlList":[]}}